{"title":"ABCD - Any Body Can Dance 2013 DVDScrRip XVID MP3 - Hindi","uid":8294563,"size":591017372,"categoryP":"video","categoryS":"movies","magnet":"?xt=urn:btih:bdc5ddc9c4c63d68917ee35b2771265f099ffc29&amp;dn=ABCD+-+Any+Body+Can+Dance+2013+DVDScrRip+XVID+MP3+-+Hindi&amp;tr=udp%3A%2F%2Ftracker.openbittorrent.com%3A80&amp;tr=udp%3A%2F%2Fopen.demonii.com%3A1337&amp;tr=udp%3A%2F%2Ftracker.coppersurfer.tk%3A6969&amp;tr=udp%3A%2F%2Fexodus.desync.com%3A6969","seeders":1,"leechers":0,"uploader":"SJonam","files":2,"time":1364125914,"description":" &lt;a href=&quot;http://desibbrg.org/images/66952052392581364616.gif&quot; rel=&quot;nofollow&quot; target=&quot;_NEW&quot;&gt;http://desibbrg.org/images/66952052392581364616.gif&lt;/a&gt; &lt;a href=&quot;\nhttp://desibbrg.org/images/66107961738298837838.jpg&quot; rel=&quot;nofollow&quot; target=&quot;_NEW&quot;&gt;\nhttp://desibbrg.org/images/66107961738298837838.jpg&lt;/a&gt; &lt;a href=&quot;\nhttp://desibbrg.org/images/39419437867492558190.png&quot; rel=&quot;nofollow&quot; target=&quot;_NEW&quot;&gt;\nhttp://desibbrg.org/images/39419437867492558190.png&lt;/a&gt; &lt;a href=&quot;\nhttp://desibbrg.org/images/19677822488232927341.png&quot; rel=&quot;nofollow&quot; target=&quot;_NEW&quot;&gt;\nhttp://desibbrg.org/images/19677822488232927341.png&lt;/a&gt; &lt;a href=&quot;\nhttp://desibbrg.org/images/69955008783877423399.png&quot; rel=&quot;nofollow&quot; target=&quot;_NEW&quot;&gt;\nhttp://desibbrg.org/images/69955008783877423399.png&lt;/a&gt; &lt;a href=&quot;\nhttp://desibbrg.org/images/30134835063242753435.png&quot; rel=&quot;nofollow&quot; target=&quot;_NEW&quot;&gt;\nhttp://desibbrg.org/images/30134835063242753435.png&lt;/a&gt; &lt;a href=&quot;\nhttp://desibbrg.org/images/35740297351187638045.png&quot; rel=&quot;nofollow&quot; target=&quot;_NEW&quot;&gt;\nhttp://desibbrg.org/images/35740297351187638045.png&lt;/a&gt;\n\nMedia Info - \nVideo\nID : 0\nFormat : MPEG-4 Visual\nFormat profile : Advanced Simple@L5\nFormat settings, BVOP : 2\nFormat settings, QPel : No\nFormat settings, GMC : No warppoints\nFormat settings, Matrix : Default (H.263)\nCodec ID : XVID\nCodec ID/Hint : XviD\nDuration : 2h 21mn\nBit rate : 452 Kbps\nWidth : 608 pixels\nHeight : 256 pixels\nDisplay aspect ratio : 2.40:1\nFrame rate : 29.970 fps\nColor space : YUV\nChroma subsampling : 4:2:0\nBit depth : 8 bits\nScan type : Progressive\nCompression mode : Lossy\nBits/(Pixel*Frame) : 0.097\nStream size : 456 MiB (82%)\nWriting library : XviD 1.2.1 (UTC 2008-12-04)\n\nAudio\nID : 1\nFormat : MPEG Audio\nFormat version : Version 1\nFormat profile : Layer 3\nMode : Joint stereo\nMode extension : MS Stereo\nCodec ID : 55\nCodec ID/Hint : MP3\nDuration : 2h 18mn\nBit rate mode : Variable\nBit rate : 80.0 Kbps\nChannel(s) : 2 channels\nSampling rate : 48.0 KHz\nCompression mode : Lossy\nStream size : 86.2 MiB (15%)\nAlignment : Split accross interleaves\nInterleave, duration : 24 ms (0.73 video frame)\nInterleave, preload duration : 508 ms\n\nRipper : BarbieGirl\n\nSeeding 24x7... Extreme Seeding...\n\n\nEnjoy!\n","torrent":{"xt":"urn:btih:bdc5ddc9c4c63d68917ee35b2771265f099ffc29","amp;dn":"ABCD+-+Any+Body+Can+Dance+2013+DVDScrRip+XVID+MP3+-+Hindi","amp;tr":["udp%3A%2F%2Ftracker.openbittorrent.com%3A80","udp%3A%2F%2Fopen.demonii.com%3A1337","udp%3A%2F%2Ftracker.coppersurfer.tk%3A6969","udp%3A%2F%2Fexodus.desync.com%3A6969"],"infoHash":"bdc5ddc9c4c63d68917ee35b2771265f099ffc29","infoHashBuffer":{"type":"Buffer","data":[189,197,221,201,196,198,61,104,145,126,227,91,39,113,38,95,9,159,252,41]},"announce":[],"urlList":[]}}